<?xml version="1.0" encoding="utf-8"?>
<!-- Generator: Adobe Illustrator 15.1.0, SVG Export Plug-In . SVG Version: 6.00 Build 0)  -->
<!DOCTYPE svg PUBLIC "-//W3C//DTD SVG 1.1//EN" "http://www.w3.org/Graphics/SVG/1.1/DTD/svg11.dtd">
<svg version="1.1" id="Layer_1" xmlns="http://www.w3.org/2000/svg" xmlns:xlink="http://www.w3.org/1999/xlink" x="0px" y="0px"
	 width="54px" height="46.508px" viewBox="423 126.746 54 46.508" enable-background="new 423 126.746 54 46.508"
	 xml:space="preserve">
<g>
	<path fill="#DF5851" d="M474.933,164.727L474.933,164.727c-4.134,5.685-8.269,8.527-12.402,8.527s-8.526-2.326-12.143-6.201
		c-5.426,4.393-10.593,6.201-14.727,6.201c-8.526,0-12.66-4.909-12.66-10.852c0-9.56,8.784-14.986,16.536-16.019
		c-0.517-2.067-0.775-4.134-0.775-5.943c0-8.785,7.234-13.693,15.502-13.693c5.426,0,7.751,2.067,7.751,4.909
		c0,4.909-6.976,9.301-10.852,11.11c1.033,2.842,2.842,6.459,4.909,10.077c0.517-8.01,4.909-15.761,12.144-15.761
		c5.167,0,8.785,3.875,8.785,9.301c0,5.425-3.876,11.11-10.077,11.11c-4.65,0-7.751-3.358-7.751-6.976
		c0-2.067,1.033-5.167,4.65-6.201c0.775,1.809,2.067,2.842,4.134,2.842c2.843,0,4.393-2.067,4.393-4.392
		c0-2.326-1.292-5.168-4.909-5.168c-5.426,0-10.852,6.459-11.368,15.761c3.875,6.459,9.56,12.402,15.502,12.402
		C473.124,165.502,474.157,165.244,474.933,164.727z M435.143,155.942c0,8.268,6.976,15.244,15.244,10.852
		c-5.167-5.167-9.043-13.177-10.593-20.67C436.435,148.191,435.143,152.584,435.143,155.942z M454.263,126.746
		c-3.617,0-4.651,3.876-4.651,6.718c0,2.326,0.775,5.684,1.809,8.785c4.393-2.325,6.459-6.976,6.459-11.11
		C457.88,128.813,456.847,126.746,454.263,126.746z"/>
</g>
</svg>
