<?xml version="1.0" encoding="utf-8"?>
<!-- Generator: Adobe Illustrator 15.1.0, SVG Export Plug-In . SVG Version: 6.00 Build 0)  -->
<!DOCTYPE svg PUBLIC "-//W3C//DTD SVG 1.1//EN" "http://www.w3.org/Graphics/SVG/1.1/DTD/svg11.dtd">
<svg version="1.1" id="Layer_1" xmlns="http://www.w3.org/2000/svg" xmlns:xlink="http://www.w3.org/1999/xlink" x="0px" y="0px"
	 width="278px" height="14.248px" viewBox="879.7 1423.058 278 14.248" enable-background="new 879.7 1423.058 278 14.248"
	 xml:space="preserve">
<g enable-background="new    ">
	<path fill="#FFFFFF" d="M879.7,1423.358h9.733v0.251h-0.502l-2.157,1.304v4.968h6.723v-5.018l-2.107-1.305h-0.501v-0.251h9.582
		v0.251h-0.401l-2.157,1.305v10.586l2.058,1.305h0.552v0.251h-9.633v-0.251h0.501l2.107-1.305v-5.218h-6.723v5.218l2.107,1.305
		h0.552v0.251H879.7v-0.251h0.552l2.057-1.305v-10.586l-2.157-1.305h-0.401v-0.2H879.7z"/>
	<path fill="#FFFFFF" d="M914.67,1423.058c1.605,0,3.061,0.25,4.415,0.752s2.509,1.204,3.411,2.157
		c0.603,0.603,1.054,1.255,1.405,1.957c0.351,0.702,0.501,1.455,0.501,2.157c0,1.305-0.451,2.459-1.304,3.562
		c-0.854,1.104-2.007,1.957-3.513,2.608c-1.454,0.652-3.061,0.953-4.816,0.953c-1.705,0-3.261-0.301-4.716-0.953
		s-2.659-1.505-3.512-2.559c-0.854-1.054-1.305-2.258-1.305-3.462c0-0.903,0.251-1.806,0.753-2.709s1.204-1.655,2.057-2.308
		s1.906-1.204,3.011-1.556C912.262,1423.258,913.466,1423.058,914.67,1423.058z M915.021,1423.509c-1.003,0-1.806,0.15-2.408,0.401
		c-0.602,0.251-1.104,0.702-1.404,1.254c-0.251,0.452-0.401,0.903-0.552,1.455c-0.101,0.452-0.15,1.054-0.201,1.807
		c-0.05,0.752-0.1,1.555-0.1,2.357c0,0.452,0,0.954,0.05,1.556c0.05,0.552,0.101,1.054,0.2,1.455
		c0.201,0.953,0.603,1.655,1.204,2.157c0.703,0.603,1.756,0.903,3.161,0.903c0.903,0,1.605-0.15,2.208-0.401
		c0.602-0.251,1.053-0.702,1.404-1.305c0.2-0.351,0.401-0.803,0.552-1.404c0.101-0.401,0.15-0.954,0.201-1.656
		c0.05-0.702,0.1-1.505,0.1-2.308c0-1.556-0.15-2.76-0.4-3.663c-0.252-0.902-0.753-1.555-1.405-1.956
		S916.125,1423.509,915.021,1423.509z"/>
	<path fill="#FFFFFF" d="M930.022,1423.358h16.656v6.121h-0.251v-0.502l-4.415-5.269h-1.454v11.791l2.106,1.304h0.652v0.251h-9.934
		v-0.251h0.552l2.207-1.354v-11.74h-1.454l-4.416,5.218v0.502h-0.25V1423.358z"/>
	<path fill="#FFFFFF" d="M951.596,1423.358h16.557v5.017h-0.201v-0.351l-4.214-4.315h-5.017v6.021h2.207l2.659-2.71v-0.803h0.251
		v7.024h-0.201v-1.054l-2.608-2.107h-2.258v6.623h5.067l4.364-4.816l0.051-0.452h0.2l-0.251,5.569h-16.405v-0.251h0.501l2.107-1.305
		v-10.535l-2.208-1.305h-0.501v-0.251H951.596z"/>
	<path fill="#FFFFFF" d="M972.617,1423.358h9.684v0.251h-0.401l-2.258,1.354v11.74h3.964l5.368-4.516l0.05-0.502h0.201l-0.301,5.368
		h-16.356v-0.251h0.452l2.157-1.304v-10.637l-2.107-1.254h-0.502v-0.251H972.617z"/>
	<path fill="#FFFFFF" d="M1011.501,1423.208h0.351l7.877,12.342l1.556,1.254h0.401v0.251h-9.031v-0.251h0.452l1.505-1.304
		l-1.706-2.659h-6.572l-0.251,0.401l1.455,3.512h0.451v0.251h-5.418v-0.251h0.401l2.709-3.512L1011.501,1423.208z
		 M1009.443,1427.422l-2.91,5.067h6.172L1009.443,1427.422z"/>
	<path fill="#FFFFFF" d="M1025.398,1423.358h9.683v0.251h-0.401l-2.258,1.354v11.74h3.964l5.368-4.516l0.05-0.502h0.201
		l-0.301,5.368h-16.356v-0.251h0.452l2.157-1.304v-10.637l-2.107-1.254h-0.502v-0.251H1025.398z"/>
	<path fill="#FFFFFF" d="M1046.319,1423.358h9.683v0.251h-0.4l-2.258,1.354v11.74h3.963l5.369-4.516l0.05-0.502h0.2l-0.301,5.368
		h-16.355v-0.251h0.451l2.157-1.304v-10.637l-2.106-1.254h-0.502v-0.251H1046.319z"/>
	<path fill="#FFFFFF" d="M1067.141,1423.358h16.557v5.017h-0.201v-0.351l-4.214-4.315h-5.018v6.021h2.208l2.659-2.71v-0.803h0.251
		v7.024h-0.201v-1.054l-2.608-2.107h-2.258v6.623h5.067l4.365-4.816l0.05-0.452h0.2l-0.25,5.569h-16.406v-0.251h0.501l2.107-1.305
		v-10.535l-2.208-1.305h-0.501v-0.251H1067.141z"/>
	<path fill="#FFFFFF" d="M1107.328,1436.453l-0.101-0.05l-0.101-0.051c-0.351-0.15-0.652-0.301-0.902-0.352
		c-0.251-0.05-0.553-0.1-0.903-0.1c-0.352,0-0.753,0.05-1.154,0.15c-0.451,0.101-1.003,0.251-1.655,0.451
		c-0.703,0.201-1.305,0.401-1.756,0.502c-0.452,0.101-0.854,0.2-1.255,0.251c-0.401,0.05-0.853,0.05-1.354,0.05
		c-1.204,0-2.408-0.15-3.512-0.501c-1.154-0.352-2.157-0.803-3.011-1.405c-0.953-0.652-1.655-1.455-2.157-2.358
		c-0.502-0.902-0.752-1.806-0.752-2.759c0-0.603,0.1-1.204,0.351-1.807c0.201-0.602,0.552-1.154,0.953-1.706
		s0.953-1.053,1.506-1.555c0.853-0.703,1.806-1.204,2.859-1.556c1.054-0.351,2.208-0.501,3.411-0.501c0.553,0,1.054,0.05,1.506,0.1
		c0.451,0.051,0.903,0.201,1.354,0.352s0.903,0.351,1.405,0.602c0.501,0.251,0.853,0.401,1.104,0.401s0.501-0.101,0.853-0.251
		s0.803-0.451,1.405-0.903l0.351-0.25h0.302l0.1,5.017h-0.2c-0.401-0.602-0.803-1.054-1.104-1.404
		c-0.301-0.352-0.702-0.703-1.204-1.054c-0.853-0.702-1.705-1.204-2.608-1.556c-0.903-0.351-1.807-0.502-2.709-0.502
		c-0.553,0-1.104,0.101-1.605,0.302c-0.502,0.2-0.954,0.501-1.305,0.853c-0.502,0.502-0.853,1.054-1.054,1.605
		c-0.401,1.104-0.652,2.408-0.652,3.913c0,0.452,0.05,1.004,0.101,1.556c0.101,0.552,0.2,1.054,0.352,1.556
		c0.15,0.501,0.301,0.853,0.501,1.153c0.854,1.506,2.308,2.208,4.315,2.208c1.053,0,1.906-0.201,2.508-0.552
		c0.603-0.352,0.903-0.903,0.903-1.556v-2.358l-2.157-1.354h-0.451v-0.25h9.633v0.25h-0.452l-2.157,1.354v2.76
		c0,0.401,0.251,0.753,0.702,1.104L1107.328,1436.453z"/>
	<path fill="#FFFFFF" d="M1113.147,1423.358h11.64c1.004,0,2.008,0.1,2.961,0.301s1.705,0.451,2.258,0.803
		c0.552,0.301,1.003,0.702,1.304,1.204c0.302,0.451,0.452,0.953,0.452,1.455c0,0.552-0.15,1.054-0.502,1.455
		c-0.352,0.451-0.853,0.803-1.505,1.104s-1.505,0.552-2.509,0.702c-1.004,0.151-2.107,0.251-3.312,0.251v0.051
		c0.302,0.1,0.502,0.2,0.703,0.25c0.451,0.101,0.953,0.201,1.404,0.251c0.452,0.051,0.903,0.101,1.305,0.101h1.305l2.458,4.164
		l2.208,1.354h0.602v0.251h-6.874l-3.763-6.422h-3.061v4.816l2.208,1.305h0.451v0.251h-9.733v-0.251h0.502l2.157-1.354v-10.536
		l-2.157-1.305h-0.451v-0.2H1113.147z M1120.222,1423.709v6.623h3.361c0.854,0,1.556-0.101,2.107-0.352
		c0.552-0.25,0.953-0.602,1.255-1.104c0.301-0.502,0.401-1.104,0.401-1.856c0-2.207-1.305-3.312-3.964-3.312H1120.222
		L1120.222,1423.709z"/>
	<path fill="#FFFFFF" d="M1147.967,1423.058c1.605,0,3.061,0.25,4.415,0.752s2.509,1.204,3.412,2.157
		c0.602,0.603,1.054,1.255,1.404,1.957c0.352,0.702,0.502,1.455,0.502,2.157c0,1.305-0.451,2.459-1.305,3.562
		c-0.853,1.104-2.057,1.957-3.512,2.608c-1.455,0.652-3.061,0.953-4.816,0.953c-1.706,0-3.261-0.301-4.716-0.953
		s-2.659-1.505-3.513-2.559c-0.853-1.054-1.304-2.258-1.304-3.462c0-0.903,0.25-1.806,0.752-2.709s1.204-1.655,2.058-2.308
		c0.853-0.652,1.906-1.204,3.01-1.556C1145.559,1423.258,1146.713,1423.058,1147.967,1423.058z M1148.268,1423.509
		c-1.003,0-1.806,0.15-2.408,0.401c-0.602,0.251-1.104,0.702-1.404,1.254c-0.251,0.452-0.401,0.903-0.552,1.455
		c-0.101,0.452-0.151,1.054-0.201,1.807c-0.05,0.752-0.101,1.555-0.101,2.357c0,0.452,0,0.954,0.051,1.556
		c0.05,0.552,0.1,1.054,0.2,1.455c0.201,0.953,0.603,1.655,1.204,2.157c0.703,0.603,1.756,0.903,3.161,0.903
		c0.903,0,1.605-0.15,2.208-0.401c0.602-0.251,1.053-0.702,1.404-1.305c0.2-0.351,0.401-0.803,0.552-1.404
		c0.101-0.401,0.15-0.954,0.201-1.656c0.05-0.702,0.1-1.505,0.1-2.308c0-1.556-0.15-2.76-0.401-3.663
		c-0.251-0.902-0.752-1.555-1.404-1.956S1149.372,1423.509,1148.268,1423.509z"/>
</g>
</svg>
