<?xml version="1.0" encoding="utf-8"?>
<!-- Generator: Adobe Illustrator 15.1.0, SVG Export Plug-In . SVG Version: 6.00 Build 0)  -->
<!DOCTYPE svg PUBLIC "-//W3C//DTD SVG 1.1//EN" "http://www.w3.org/Graphics/SVG/1.1/DTD/svg11.dtd">
<svg version="1.1" id="Layer_1" xmlns="http://www.w3.org/2000/svg" xmlns:xlink="http://www.w3.org/1999/xlink" x="0px" y="0px"
	 width="225px" height="226.016px" viewBox="1075.1 1657.983 225 226.016" enable-background="new 1075.1 1657.983 225 226.016"
	 xml:space="preserve">
<g enable-background="new    ">
	<path fill="#DF5851" d="M1077.197,1678.618l4.69-2.293c7.072-3.583,13.548-7.073,19.436-10.369
		c4.781-2.788,9.262-5.38,13.457-7.973h2.292v68.156l13.952,7.074h4.886v1.394H1075.1v-1.394h4.69l14.746-7.374v-53.904
		l-6.969,3.582c-0.6,0.3-2.397,1.198-5.485,2.892c-3.087,1.59-4.689,2.488-4.885,2.593V1678.618z"/>
	<path fill="#DF5851" d="M1150.03,1678.618l4.69-2.293c7.073-3.583,13.548-7.073,19.436-10.369c4.781-2.788,9.262-5.38,13.457-7.973
		h2.292v68.156l13.952,7.074h4.885v1.394h-60.782v-1.394h4.688l14.747-7.374v-53.904l-6.969,3.582c-0.6,0.3-2.397,1.198-5.485,2.892
		c-3.087,1.59-4.689,2.488-4.885,2.593v-2.384H1150.03z"/>
</g>
<g enable-background="new    ">
	<path fill="#DF5851" d="M1227.163,1807.362v18.329h0.194c1.798-3.088,3.492-5.576,4.977-7.478c1.498-1.798,3.192-3.491,5.08-5.08
		c5.68-4.586,12.063-6.879,19.229-6.879c2.787,0,5.483,0.404,7.973,1.095c2.592,0.703,5.979,2.097,10.16,3.986
		c3.388,1.497,6.084,2.592,8.076,3.191c1.994,0.6,3.791,0.898,5.485,0.898c2.592,0,4.689-0.599,6.278-1.889
		c1.59-1.289,2.788-3.191,3.687-5.876h1.798c-0.195,2.593-0.703,4.886-1.498,6.879c-0.898,1.993-2.188,4.091-4.182,6.083
		c-1.889,2.098-4.689,4.586-8.168,7.373c-3.882,3.284-6.773,5.784-8.662,7.674c-4.481,4.585-7.777,8.767-9.861,12.362
		c-2.098,3.687-3.088,7.178-3.088,10.461c0,2.787,0.899,5.185,2.593,7.269c1.693,2.098,3.687,3.088,5.979,3.088
		c1.095,0,2.189-0.301,3.088-0.899c0.495-0.195,0.899-0.3,1.198-0.3c0.899,0,1.395,0.6,1.395,1.694c0,2.487-0.795,4.885-2.396,7.072
		c-1.59,2.188-3.791,4.091-6.476,5.484c-2.696,1.395-5.484,2.098-8.376,2.098c-3.191,0-5.979-0.703-8.571-2.188
		c-2.593-1.394-4.586-3.387-5.98-5.875c-1.497-2.488-2.188-5.275-2.188-8.376c0-3.191,0.599-6.384,1.797-9.367
		c1.199-2.982,3.088-5.979,5.681-8.962c1.993-2.293,4.285-4.391,6.683-6.384c4.39-3.49,10.161-7.269,17.442-11.555
		c7.179-4.285,11.855-7.478,14.147-9.365c3.387-2.893,5.484-5.68,6.279-8.377l-0.196-0.195l-2.396,1.993
		c-4.586,3.491-8.871,6.278-12.753,8.571c-3.882,2.189-7.478,3.791-10.761,4.781c-3.282,0.99-6.683,1.498-10.161,1.498
		c-3.49,0-8.467-1.095-14.851-3.282c-4.885-1.59-8.375-2.397-10.76-2.397c-5.275,0-7.868,2.488-7.868,7.373v8.663h-1.198v-33.388
		h1.198v0.195H1227.163z"/>
</g>
<g>
	
		<rect x="1200.978" y="1653.861" transform="matrix(0.7073 0.7069 -0.7069 0.7073 1603.1094 -332.0203)" fill="#DF5851" width="2.984" height="231.772"/>
</g>
</svg>
